<svg xmlns="http://www.w3.org/2000/svg" viewBox="0 0 915.4 246.55">
    <g id="Layer_2" data-name="Layer 2">
        <g id="Logo_Assets" data-name="Logo Assets">
            <path fill="#383c43" d="M726.9,159.5,684.8,50.8h37.8l24.3,70.9,24.5-70.9H808L766.5,159.5Z"/>
            <path fill="#383c43" d="M0,159.5V50.8H34.7V159.5Z"/>
            <path fill="#383c43"
                  d="M149.8,88.2v71.4H115.1v-59c0-13-6.4-20-17.2-20-9.6,0-17.6,6.4-17.6,20.6v58.5H45.6V50.8H78.8V64.4c7-11.5,17.7-16.6,32.3-16.6C132.9,47.9,149.8,63,149.8,88.2Z"/>
            <path fill="#383c43"
                  d="M237.7,61.3V0h34.6V159.5H238.9V147.7c-6.6,8.5-16.5,14.6-31.2,14.6-28.9,0-50.5-25.1-50.5-57.4,0-31.9,21.5-57.2,50.6-57.2C221.5,47.9,231.1,53.3,237.7,61.3Zm-45,43.8c0,14.2,9.3,24.9,23.1,24.9,13.6,0,23.3-10.5,23.3-24.9s-9.6-24.9-23.3-24.9-23.1,10.7-23.1,24.9Z"/>
            <rect fill="#1cbc97" x="283.2" y="124.8" width="34.7" height="34.7"/>
            <rect fill="#1cbc97" y="5.2" width="34.7" height="34.7"/>
            <path fill="#383c43"
                  d="M433.9,71.2,406.8,90.1c-5.4-7.1-11.6-10.4-20-10.4-12.1,0-22.4,9.4-22.4,24.9,0,15.7,10.1,24.9,22.2,24.9,8.1,0,15-3.5,20.5-10.5l27,19.3c-10.5,14.7-26.3,23.6-46.5,23.6-34.7,0-58.6-24-58.6-57.3s23.9-57.3,58.6-57.3C407.7,47.4,423.4,56.3,433.9,71.2Z"/>
            <path fill="#383c43"
                  d="M515.7,159.5V147.7c-6.7,8.5-16.5,14.6-31.2,14.6-28.9,0-50.5-25.1-50.5-57.4,0-31.9,21.5-57.2,50.6-57.2,14.6,0,24.6,6.2,31.1,14.7V50.8h33.6V159.5Zm-46.1-54.4c0,14.2,9.3,24.9,23.2,24.9,13.6,0,23.3-10.5,23.3-24.9s-9.6-24.9-23.3-24.9c-13.9,0-23.2,10.7-23.2,24.9Z"/>
            <rect fill="#383c43" x="642.8" y="96.5" width="34.7" height="63"/>
            <path fill="#383c43"
                  d="M915.4,105.8a78.34,78.34,0,0,1-.7,10.8H841c3,12,11.3,17.4,23.3,17.4,8.1,0,16.7-3.3,23.7-9.5l22.4,20.8C899,156.6,882.8,163,862.5,163c-34.1,0-57.3-22.7-57.3-56.6,0-34.1,22.6-57.9,55.7-57.9C893.2,48.5,915.4,71.8,915.4,105.8ZM841.2,94.6h39.5c-2.8-11-9.4-16.6-19.6-16.6-10.7-.1-17.3,5.8-19.9,16.6Z"/>
            <path fill="#1cbc97" d="M642.8,85.5V50.8h34.7V85.5Z"/>
            <path fill="#383c43" d="M283.2,113.9v-63h34.7v63Z"/>
            <path fill="#383c43"
                  d="M631.9,123.7c-5.1,4-12.9,6.4-21.7,6.4-10,0-15.4-4.2-15.4-16.7V82h37.1V51H594.8V19.4H560.2v98.4c0,27.1,16.5,44.6,42.3,44.6a79.34,79.34,0,0,0,29.4-5.3Z"/>
            <path fill="#383c43"
                  d="M424.15,245.92v-45.5h15.94q8.28,0,12.56,3.17t4.28,9.3a10.25,10.25,0,0,1-1.72,5.89,9.88,9.88,0,0,1-4.78,3.73,9.65,9.65,0,0,1,5.52,3.54,10.44,10.44,0,0,1,2,6.5q0,6.55-4.19,9.93t-11.93,3.44Zm9.37-26.44h6.94q7.1-.12,7.1-5.65c0-2.07-.6-3.55-1.8-4.46s-3.09-1.36-5.67-1.36h-6.57Zm0,6.63v12.28h8a7.77,7.77,0,0,0,5.17-1.58,5.4,5.4,0,0,0,1.86-4.36q0-6.24-6.47-6.34Z"/>
            <path fill="#383c43" d="M484.08,220.92l9.47-20.5H503.8l-14.94,29v16.5h-9.53v-16.5l-14.94-29h10.29Z"/>
            <path fill="#383c43"
                  d="M546.38,200.42l11.69,33,11.63-33H582v45.5H572.6V233.48l.94-21.47-12.28,33.91h-6.44l-12.25-33.87.94,21.43v12.44h-9.38v-45.5Z"/>
            <path fill="#383c43"
                  d="M604.69,229.89v16h-9.37v-45.5h17.75a20.52,20.52,0,0,1,9,1.88,13.82,13.82,0,0,1,6,5.32,15,15,0,0,1,2.09,7.86A13.07,13.07,0,0,1,625.58,226q-4.58,3.85-12.67,3.86Zm0-7.59h8.38a8.26,8.26,0,0,0,5.67-1.75,6.38,6.38,0,0,0,2-5,7.47,7.47,0,0,0-2-5.41,7.35,7.35,0,0,0-5.43-2.13h-8.6Z"/>
            <path fill="#383c43"
                  d="M661.84,236.55H645.41l-3.13,9.37h-10l16.94-45.5h8.69l17,45.5H665Zm-13.9-7.6h11.37l-5.72-17Z"/>
            <path fill="#383c43"
                  d="M701.18,229.26h-7.47v16.66h-9.37v-45.5h16.9q8.07,0,12.44,3.59t4.38,10.16a14.07,14.07,0,0,1-2,7.77,13.74,13.74,0,0,1-6.11,4.95l9.85,18.59v.44H709.71Zm-7.47-7.59h7.57a7.72,7.72,0,0,0,5.46-1.8,6.38,6.38,0,0,0,1.94-5,6.86,6.86,0,0,0-1.83-5.06Q705,208,701.24,208h-7.53Z"/>
            <path fill="#383c43" d="M763,208H749.05v37.91h-9.37V208H725.93v-7.59H763Z"/>
            <path fill="#383c43" d="M783.42,245.92h-9.37v-45.5h9.37Z"/>
            <path fill="#383c43"
                  d="M833,230.76q-.54,7.35-5.42,11.57t-12.89,4.22q-8.76,0-13.77-5.89t-5-16.18V221.7a27.14,27.14,0,0,1,2.32-11.56,17.29,17.29,0,0,1,6.61-7.67,18.5,18.5,0,0,1,10-2.67q7.88,0,12.69,4.21c3.21,2.82,5.06,6.76,5.56,11.85h-9.37q-.35-4.41-2.46-6.39t-6.42-2a8,8,0,0,0-7,3.36q-2.32,3.36-2.39,10.42v3.44q0,7.38,2.24,10.78t7,3.41q4.33,0,6.48-2c1.43-1.33,2.24-3.37,2.45-6.15Z"/>
            <path fill="#383c43" d="M853.6,238.39h19.91v7.53H844.22v-45.5h9.38Z"/>
            <path fill="#383c43" d="M911.38,226.2h-18v12.19H914.5v7.53H884v-45.5h30.44V208H893.38v10.85h18Z"/>
        </g>
    </g>
</svg>